<svg xmlns="http://www.w3.org/2000/svg" viewBox="0 0 271.8 330.76"><defs><style>.cls-1{fill:#010101;}.cls-2{fill:#fea900;}.cls-3{fill:#060606;}.cls-4{fill:#070707;}.cls-5{fill:#f0f0f0;}.cls-6{fill:#676767;}.cls-7{fill:#f7f7f7;}.cls-8{fill:#fdfdfd;}.cls-9{fill:#f5a300;}.cls-10{fill:#4d0a15;}.cls-11{fill:#fff;}</style></defs><g id="Layer_2" data-name="Layer 2"><g id="Layer_1-2" data-name="Layer 1"><path class="cls-1" d="M264.92,240.69a221.14,221.14,0,0,0-19.5-37.17c-5.64-8.46-11.69-16.64-17.57-24.94l-5.4-5.24c-1.56-.52-1.45.62-1.31,1.46.68,4,1.9,7.95,2.1,12,.52,10.51,1.14,21.07.72,31.57-.38,9.29-2.17,18.52-3.21,27.8-1.32,11.84-6.35,22.16-12.9,31.84-3.35,4.94-7,9.67-10.54,14.48-.17.23-.58.28-1.34.62,1.54-4.23,2.82-8.16,4.39-12A180.79,180.79,0,0,0,210,247.5c1.78-9,3.28-17.93,3.37-27.1.05-5.36.82-10.75.56-16.08a186.15,186.15,0,0,0-3.61-30.09,141.54,141.54,0,0,0-10.14-30c-2-4.21-4.72-8.06-7.11-12.07-1-1.58-1.88-3.17-3.14-5.3a23.43,23.43,0,0,1,3.31-.52,48.34,48.34,0,0,0,30.65-10.48c8.42-6.48,15.32-14.15,20-23.79,5.45-11.18.84-22.37-8.63-28a24.51,24.51,0,0,0-29.78,4,121.73,121.73,0,0,0-10,12c-2.76,3.65-5.76,7.15-11.39,4.77-2.9-1.22-6.35-1.18-9.22-2.45C166.8,78.77,163,71.8,162.15,63.32c-.39-3.72.21-7.58.72-11.32.3-2.21,1.92-3.59,4.2-4.3,4.24-1.34,8.67-2.43,12.55-4.51A93.5,93.5,0,0,0,195.19,33a12.13,12.13,0,0,0,4.26-11.69C197.76,12.77,190.08,8.14,183,9.7a65.38,65.38,0,0,0-30.78,16.07A64.49,64.49,0,0,0,134,54c-1.11,3.51-1,7.52-.89,11.28a14,14,0,0,1-4.78,11.59,146.35,146.35,0,0,0-18.8,21.36c-1.37,1.89-3.37,3.3-4.94,5.06q-10.38,11.63-20.64,23.32c-12,13.78-21.41,29.32-29.41,45.67a181.93,181.93,0,0,0-15.36,46.85,248.71,248.71,0,0,0-3.59,28.43c-.34,4.86-.36,9.05,2.51,13,.14.19-8.61-12.33-9.57-20.24-1.55-12.67-1.4-25.35,1.57-37.87A190.46,190.46,0,0,1,47,156.57c6.14-11.51,12.93-22.65,21.65-32.44,4.39-4.94,9.07-9.63,13.67-14.38,2.78-2.87,5.66-5.64,8.49-8.46l.42-.05-.39.15a75.86,75.86,0,0,0-8.46,2.73c-10,4.49-18.94,10.69-27.75,17.18a139.08,139.08,0,0,0-15.83,13.94C32.65,141.36,28,148.58,23.5,155.87c-4.21,6.82-8.37,13.7-12,20.81-1.89,3.65-4.31,6-8.17,6.94a19.05,19.05,0,0,1-3.15.16c0-2-.36-3.85.07-5.48,1.48-5.72,2.81-11.54,5-17a126.49,126.49,0,0,1,8.88-17.87c2.45-4.07,5.8-7.67,9.06-11.18,8.49-9.15,18.47-16.52,28.77-23.49,8.37-5.66,16.55-11.6,25-17.17,5.65-3.73,11.53-7.12,17.4-10.52,9.41-5.44,18.89-10.76,28.5-16.23,1.43-8.24,3.66-16.38,7.68-23.91a80.38,80.38,0,0,1,18.74-23.29A73.79,73.79,0,0,1,180.48,1.73a67,67,0,0,1,45.73,5.72c10,5.14,17.6,12.74,23.59,22.17a58.07,58.07,0,0,1,8.62,24.69,70,70,0,0,1-5.28,36.49,75.09,75.09,0,0,1-19.22,26.66c-4.38,3.87-9.52,6.9-14.46,10.11a86.28,86.28,0,0,1-8.06,4.13c1.4,1.65,2.71,3.25,4.08,4.79,10.66,11.87,21.59,23.52,31.91,35.68,7.16,8.43,13.63,17.58,17.88,27.85a88.09,88.09,0,0,1,5.24,20c1.08,6.89,1.06,14,1.29,20.95.07,2-.69,4.08-1.24,7.05l-4-2.5ZM203.27,59.38c.24-4.6-1.25-7.31-3.35-9.45-3.74-3.78-8.49-4.91-13.71-4.07-8.58,1.39-15.12,5.54-18.85,13.69-2.16,4.72-2.14,9.43,1.26,13.2,3.82,4.25,8.94,6.45,14.91,5.26a28.88,28.88,0,0,0,12.74-6.15A19.22,19.22,0,0,0,203.27,59.38Z"/><path class="cls-2" d="M115.25,314.25c0,3.56-3.19,4.4-5.35,5.72-6.85,4.21-14.61,5.9-22.43,7.38A107,107,0,0,1,61,328.55c-8.87-.54-17.8-1.69-25.31-7.28-5.78-4.3-4.69-9.49-.59-13a36.85,36.85,0,0,1,18-8.25c5.48-1,10.87-2.78,16.51-2.16a19.88,19.88,0,0,1,7.57,2.07,106.07,106.07,0,0,0,34.7,12.74,28.67,28.67,0,0,1,3.22.92A1.63,1.63,0,0,0,115.25,314.25Z"/><path class="cls-2" d="M116.81,315c1.54-.35,3.07-1.11,4.51-1,6.12.63,12.21,1,18.33-.07,5.47-1,11-1.49,16.45-2.59a85.66,85.66,0,0,0,22-7.95,7.81,7.81,0,0,1,3.9-1,7.31,7.31,0,0,1,2.74.65c4.32,1.86,8.54,3.69,12.33,6.61,6.12,4.73,4.51,10.86-.31,14.05-5.79,3.84-12.23,5.49-18.85,6.16a134.5,134.5,0,0,1-21.79.66c-11.38-.71-22.63-2.64-32.76-8.37C120.72,320.72,117.7,319.3,116.81,315Z"/><path class="cls-3" d="M218,95.21c-5.3.05-7.35-3.46-7.61-7.47-.27-4.22,3.7-8.1,7.79-8s7.88,3.8,8,7.69C226.26,91.9,222.78,95.23,218,95.21Z"/><path class="cls-4" d="M179.65,27.4c-.15,4.15-3.78,7.83-7.65,7.74s-7.53-4.23-7.31-8.11,4.09-7.55,7.68-7.39C176.2,19.81,179.78,23.63,179.65,27.4Z"/><path class="cls-5" d="M222.45,173.34l5.4,5.24-1,.46c3.47,7.93,6.76,15.65,10.24,23.29,1.53,3.37,3.46,6.55,5.18,9.83a7.53,7.53,0,0,1,.44,1.58l-.06,1.29a20.82,20.82,0,0,1-2.54-3.21c-2-3.75-4.37-7.42-5.6-11.43-2.2-7.15-6.92-13.08-9.14-20.09C224.61,177.82,222.27,176.11,222.45,173.34Z"/><path class="cls-5" d="M253.61,231.81c2.87,3.11,5.74,6.2,8.59,9.32.05.06-.18.37-.54,1.07a50.18,50.18,0,0,1-4.37-4.39c-1.44-1.83-2.58-3.89-3.86-5.84Z"/><path class="cls-6" d="M242.67,215l.06-1.29,7,12.24-.73.42A46.93,46.93,0,0,1,242.67,215Z"/><path class="cls-7" d="M26.65,167l7.22-5.83c-1,2.65-4.19,4.21-6.24,6.79Z"/><path class="cls-5" d="M253.43,232c-2.1-1.06-3.7-2.4-3-5.48a7.29,7.29,0,0,1,3.17,5.32Z"/><path class="cls-5" d="M264.92,240.69l1.65,4.8L262.83,242Z"/><path class="cls-7" d="M38.27,155.68l-2.46,3.48-.75-.61c.25-1.69,1.46-2.52,3.08-3Z"/><path class="cls-7" d="M21.92,171.08l2.25-2.38.71.59c-.68.86-1.35,1.73-2,2.6Z"/><path class="cls-7" d="M46.5,145l2.11-2.89.76.49-1.95,2.95Z"/><path class="cls-7" d="M14.92,177.51l-2.15,1.19-.36-.56,2.08-1.31Z"/><path class="cls-7" d="M41.83,149.84l1.38-.16.15.64-1.43.37Z"/><path class="cls-7" d="M54.54,134.43l1.47-.74.25.42-1.41,1Z"/><path class="cls-7" d="M51.61,140.32l-1.25.5-.23-.41,1.11-.73Z"/><path class="cls-7" d="M46.25,146.84l-.77,1.09-.45-.25.57-1.19Z"/><path class="cls-8" d="M115.25,314.25a1.63,1.63,0,0,1-.12-.65l1-.31Z"/><path class="cls-7" d="M19.26,173.83l.62-1.19.51.42-1.07.82Z"/><path class="cls-7" d="M17.31,175.43c.13.14.25.29.37.43l-.66.42c-.07-.18-.23-.4-.19-.55S17.14,175.53,17.31,175.43Z"/><path class="cls-7" d="M58.49,130.76l.48-1.31.5.19-.52,1.3Z"/><path class="cls-7" d="M41,152.46l-.59.57-.53-.42.5-.76Z"/><path class="cls-1" d="M195.45,294.36l-1.07.22-.12-.41.93-.44Z"/><path class="cls-7" d="M90.81,101.39l.39-.15-.42.05Z"/><path class="cls-7" d="M19.32,173.88l-.63.58.57-.63Z"/><path class="cls-7" d="M38.14,155.56l.48-.35-.35.47Z"/><path class="cls-9" d="M203.27,59.38a19.22,19.22,0,0,1-7,12.48A28.88,28.88,0,0,1,183.53,78c-6,1.19-11.09-1-14.91-5.26-3.4-3.77-3.42-8.48-1.26-13.2,3.73-8.15,10.27-12.3,18.85-13.69,5.22-.84,10,.29,13.71,4.07C202,52.07,203.51,54.78,203.27,59.38ZM191.63,70c-7.46-3.43-9.52-10.32-12-17.43-1.77,1.36-3.37,2.22-4.48,3.5-6,6.92-4.36,14.38,3,16.66C182.51,74.05,187.2,73.34,191.63,70Z"/><path class="cls-10" d="M191.63,70c-4.43,3.39-9.12,4.1-13.52,2.73-7.35-2.28-9-9.74-3-16.66,1.11-1.28,2.71-2.14,4.48-3.5C182.11,59.63,184.17,66.52,191.63,70Z"/><path d="M38.33,260.47s9,20.55,18,28.77l11.55,8.5"/><line class="cls-11" x1="38.08" y1="260.53" x2="38.58" y2="262.02"/><path d="M182.33,302.47a124.27,124.27,0,0,0,13.12-8.11l1.42-1.64"/></g></g></svg>