<svg xmlns="http://www.w3.org/2000/svg" viewBox="0 0 433.03 488.4"><defs><style>.cls-1{fill:#e8f7fe;}.cls-2{fill:#c6e1ef;}.cls-3{fill:#ddeff9;}.cls-4{fill:#d0e8f3;}.cls-5{fill:#a1cce0;}.cls-6{fill:#8ec0d7;}.cls-7{fill:#ddf0fa;}.cls-8{fill:#d9eef8;}.cls-9{fill:#94c4db;}.cls-10{fill:#a9d2e6;}.cls-11{fill:#96c5db;}.cls-12{fill:#a1cbdf;}.cls-13{fill:#96c6dc;}.cls-14{fill:#b6daec;}.cls-15{fill:#d5ecf7;}.cls-16{fill:#c3e2f1;}.cls-17{fill:#abd4e7;}.cls-18{fill:#b7dbec;}.cls-19{fill:#a4cde1;}.cls-20{fill:#cce7f4;}.cls-21{fill:#a0cce2;}.cls-22{fill:#afd5e7;}.cls-23{fill:#b1d6e7;}.cls-24{fill:#c1dfed;}.cls-25{fill:#cde6f3;}.cls-26{fill:#e0edf3;}.cls-27{fill:#badbeb;}.cls-28{fill:#c4e1f0;}.cls-29{fill:#cfe8f4;}.cls-30{fill:#010101;}.cls-31{fill:#fea900;}.cls-32{fill:#060606;}.cls-33{fill:#070707;}.cls-34{fill:#f0f0f0;}.cls-35{fill:#676767;}.cls-36{fill:#f7f7f7;}.cls-37{fill:#fdfdfd;}.cls-38{fill:#f5a300;}.cls-39{fill:#4d0a15;}.cls-40{fill:#fff;}</style></defs><g id="Layer_2" data-name="Layer 2"><g id="Layer_1-2" data-name="Layer 1"><path class="cls-1" d="M428.67,398.86c0,.31,0,.61,0,.91L424.18,406c-1.15,1.56-2.75,3-3.39,4.7-4.31,11.86-13.78,16.93-25.17,19.62-4.54.59-9.23.71-13.59,1.94-2.77.79-7.35-.94-8,4.18l-14.27,5.39-16.06,5.49-10.75,2.64-2.69.87a33.15,33.15,0,0,0-5.79-.2c-3.47.47-6.88,1.31-10.31,2-3.11-.09-6.26.08-9.33-.31-4.63-.58-9.2-1.7-13.84-2.26-1.76-.21-3.64.49-5.47.77l-10.74-.91L264,447.23,250.6,444.6l-10.73-1.83-10.71-1.86-9-2.48-5.54-1.18-12.27-2.6-9-1.81c-.55-.79-1.08-2.25-1.66-2.28-5.74-.22-11.48-.21-17.23-.27l-4.39,0c-3.37,0-6.76-.31-10.1,0a56.87,56.87,0,0,0-7.82,1.69l-9.84,1.81-1.69,1.86,0,0a65.6,65.6,0,0,0-7.42,0c-1.48.16-2.88,1.08-4.32,1.65l-4.43.94h-9l-8,0L105.67,440l-10.73,0-34.89-2.68L46.62,432c-.29,0-.58,0-.87,0L43,430.32l-8-2.64-8.89-4.63c-4.62-4.23-9.68-8.08-13.7-12.81-3-3.5-4.6-8.16-6.86-12.28-1-1.81-2.15-3.32-4.49-1.8C.7,393.09.39,390,.11,387c-.91-9.69,4.11-16.89,10.06-23.61,2.38-2.69,5.19-5,7.8-7.46,7.67.59,15.34,1.76,23,1.67,14.31-.17,28.61-1.12,42.91-1.64,10.54-.39,21.08-.6,31.62-.94,1.91-.07,3.82-.45,5.73-.54,9.33-.41,18.66-.89,28-1.08,4.94-.11,9.9.52,14.85.47,10.77-.09,21.53-.57,32.3-.56,8.39,0,16.77.53,25.16.83,1.34.05,2.68,0,4,.16,11.27,1.13,22.53,2.31,33.8,3.41,4.42.42,8.89.43,13.28,1,9.18,1.29,18.31,3,27.5,4.29,17.09,2.46,34.22,4.75,51.32,7.18,5.41.78,10.78,1.84,16.17,2.7,10.06,1.62,20.16,3,30.17,4.86,7.24,1.36,14.42,3.17,21.51,5.17,3.55,1,6.86,2.84,10.27,4.31Z"/><path class="cls-2" d="M392.93,312.85l7,2,3.7,3.4,1.7.1,1.79,2.66,9,10.71c.31.89.61,1.79.91,2.68-1.63,1.2-3.09,2.91-4.92,3.5-8.91,2.87-18.11,2.24-27.21,1.38-6-.58-11.91-2.27-17.91-3-12.32-1.54-24.68-2.68-37-4.21-11.57-1.43-23.07-3.41-34.65-4.67-7.29-.79-14.67-.65-22-1-17.41-.87-34.8-2-52.22-2.63-10-.37-20-.07-30-.07H100.35c-1.2,0-2.39,0-3.58,0-10.29.57-20.56,1.39-30.86,1.68-10.57.3-21.17.08-31.75.08a26.57,26.57,0,0,0-5.08-18.05,11.64,11.64,0,0,1-2-5.55c-.38-4-2.14-6.33-6.2-6.77q-.54-6.31-1.07-12.62c.29-.61.59-1.22.88-1.84l8.05-7.17,1.88-1.66L37.64,269l1.89-1.65a8.33,8.33,0,0,0,.86-.08l5.34-1.86,3.65-1.69c1.88,0,3.73.06,3.57-2.65l4.4-.1,1.81-.91H60.9l1.88-1.68h1.75l2.68-1c5.73-.58,11.46-1.5,17.2-1.61,3.79-.07,7.61,1,11.43,1.62l1.76.94.88.05,1.87,1.67,3.49,1,2.66,2.66,1.8.95,1.83,1.7h0l2.68,2.68h0l2.7,2.67,2.64.07,1.88,1.67h18.7l1.88-1.67,5.33-.06,1.78-1h3.53l1.88-1.68,8-1,6.35-2.57c2.58-.54,5.14-1.24,7.75-1.59,9.89-1.35,19.77-2.74,29.69-3.8,7.9-.84,15.86-1.89,23.75-1.6,8.14.3,16.23,2.05,24.32,3.29a94.58,94.58,0,0,1,11.95,2.37c7.52,2.18,15.1,4.3,22.35,7.21,8.5,3.42,16.66,7.69,25,11.54,4.93,2.29,9.95,4.4,14.86,6.74,5.68,2.71,11.29,5.59,16.92,8.39a1.86,1.86,0,0,0,.38.22L365.14,303l2.68,1h1.75c1.41,3.62,4.61,2.27,7.2,2.6l2.68.81,6.34,2.7,5.25,1Z"/><path class="cls-3" d="M429.57,387.22c-3.41-1.47-6.72-3.32-10.27-4.31-7.09-2-14.27-3.81-21.51-5.17-10-1.87-20.11-3.24-30.17-4.86-5.39-.86-10.76-1.92-16.17-2.7-17.1-2.43-34.23-4.72-51.32-7.18-9.19-1.33-18.32-3-27.5-4.29-4.39-.62-8.86-.63-13.28-1-11.27-1.1-22.53-2.28-33.8-3.41-1.33-.13-2.67-.11-4-.16-8.39-.3-16.77-.82-25.16-.83-10.77,0-21.53.47-32.3.56-5,.05-9.91-.58-14.85-.47-9.34.19-18.67.67-28,1.08-1.91.09-3.82.47-5.73.54-10.54.34-21.08.55-31.62.94-14.3.52-28.6,1.47-42.91,1.64-7.66.09-15.33-1.08-23-1.67,1.78-2.8,3.74-5.51,5.29-8.43a35.53,35.53,0,0,0,2-6l6.17-1.65c7.65.2,15.3.41,23,.58,4,.09,7.93.37,11.87.11,15.66-1,31.3-2.47,47-3.29,9.3-.49,18.64,0,28-.12,10.32-.17,20.64-.67,31-.83,8.27-.14,16.55-.1,24.82,0,9.95.19,19.92.35,29.85.94,9.59.58,19.15,1.73,28.73,2.55,8.12.69,16.27,1.05,24.36,1.95,17.19,1.9,34.36,4,51.52,6.13,13.94,1.74,28,3,41.74,5.67,18.37,3.65,36.91,4.09,55.46,5l.09,1.8c-1.65,2.34-1.14,3.86,1.71,4.49l1,8.05c0,3.1.19,6.22-.09,9.3C431.12,383.9,430.16,385.54,429.57,387.22Z"/><path class="cls-4" d="M428.6,358.54c-18.55-.94-37.09-1.38-55.46-5-13.75-2.72-27.8-3.93-41.74-5.67-17.16-2.14-34.33-4.23-51.52-6.13-8.09-.9-16.24-1.26-24.36-1.95-9.58-.82-19.14-2-28.73-2.55-9.93-.59-19.9-.75-29.85-.94-8.27-.15-16.55-.19-24.82,0-10.32.16-20.64.66-31,.83-9.31.14-18.65-.37-27.95.12-15.66.82-31.3,2.26-47,3.29-3.94.26-7.91,0-11.87-.11-7.65-.17-15.3-.38-23-.58l2.73-14.32c10.58,0,21.18.22,31.75-.08,10.3-.29,20.57-1.11,30.86-1.68,1.19-.07,2.38,0,3.58,0h90.77c10,0,20-.3,30,.07,17.42.66,34.81,1.76,52.22,2.63,7.34.36,14.72.22,22,1,11.58,1.26,23.08,3.24,34.65,4.67,12.32,1.53,24.68,2.67,37,4.21,6,.76,11.9,2.45,17.91,3,9.1.86,18.3,1.49,27.21-1.38,1.83-.59,3.29-2.3,4.92-3.5l1.77.91.93,1.75,1.74,2.73q0,.44,0,.87l1.7,1.84.09,1.74c.3.9.6,1.81.89,2.71l1.77,3.6q.86,2.25,1.73,4.48Z"/><path class="cls-5" d="M395.62,430.28c11.39-2.69,20.86-7.76,25.17-19.62.64-1.75,2.24-3.14,3.39-4.7l3.61.05-.06.08q-.92,16-1.82,32A43.19,43.19,0,0,1,406,462c-6.07,3.44-13.43,4.6-20.22,6.79-2.81-.63-7,1.81-7.8-3.27a44.82,44.82,0,0,1-.58-8.73c.24-6.77.75-13.53,1.16-20.29,2.72-3.76,6.73-2.55,10.37-2.67C391.75,433.69,394.63,433.82,395.62,430.28Z"/><path class="cls-6" d="M170.11,430.31l4.39,0a8.14,8.14,0,0,0,2.64,1.19c1.59.09,3.22-.48,4.78-.31,3.84.42,7.65,1.1,11.47,1.67l9,1.81c.57,1.31,1.58,2.6,1.65,4,.55,9.19,0,18.32-3.13,27-.51,1.4-3.08,2-4.7,3-.75-.57-1.53-1.66-2.26-1.62-5.62.3-11.06-2.62-16.74-1a3.64,3.64,0,0,1-.8-.15c-1.14-.57-2.23-1.53-3.41-1.64-2.72-.25-5.49-.08-8.24-.09C165.93,452.82,165.5,441.16,170.11,430.31Z"/><path class="cls-7" d="M285.51,450.79c1.83-.28,3.71-1,5.47-.77,4.64.56,9.21,1.68,13.84,2.26,3.07.39,6.22.22,9.33.31.08,1.65-.45,3.76.36,4.87,4.84,6.57,6.23,14.28,7.59,22,1,5.48-.75,7.14-6.55,7.19-4.16,0-8.32-.1-12.47.05-2.58.09-5.15.56-7.73.86-2.93-.53-5.83-1.24-8.78-1.51a28.37,28.37,0,0,0-5.54.56c-.06-2.9-.61-5.89-.09-8.67,1.39-7.28,3.72-14.21,8.56-20.13,2.51-3.06,1.7-4.91-2.06-6.07A14.72,14.72,0,0,1,285.51,450.79Z"/><path class="cls-8" d="M60.05,437.37l34.89,2.68c-.59,2.7-1.37,5.37-1.75,8.1-.69,5.08-.88,10.25-1.76,15.29-1.44,8.26-2,8.39-10.23,9-2.92.21-5.75,1.68-8.63,2.57l-2.68-.9c-1-.59-2-1.6-3-1.69-2.81-.25-5.66-.09-8.49-.1l-.1-.09c-1.19-2.47-3.09-4.85-3.43-7.43a32.67,32.67,0,0,1,2.93-17.69C59.08,444.09,59.32,440.62,60.05,437.37Z"/><path class="cls-9" d="M1,396.16c2.34-1.52,3.51,0,4.49,1.8,2.26,4.12,3.88,8.78,6.86,12.28,4,4.73,9.08,8.58,13.7,12.81C24,432,22,440.9,19.82,449.78c-.22.85-1.89,1.34-2.89,2l-.81-.8-1.61-2c-3.28-4.27-6.77-8.4-9.74-12.87-1.47-2.22-2-5.08-2.94-7.65l-1.5-2c0-9.16-.13-18.31-.12-27.47A11.12,11.12,0,0,1,1,396.16Z"/><path class="cls-10" d="M378.56,436.45c-.41,6.76-.92,13.52-1.16,20.29a44.82,44.82,0,0,0,.58,8.73c.8,5.08,5,2.64,7.8,3.27-.8.56-1.68,1.7-2.41,1.61-7.38-.9-13.81,1.71-20.1,5a8.63,8.63,0,0,1-2.59.48c-.6-1.54-1.73-3.08-1.71-4.61.12-9.83.49-19.65.78-29.48L374,436.4Z"/><path class="cls-4" d="M72.57,475c2.88-.89,5.71-2.36,8.63-2.57,8.2-.57,8.79-.7,10.23-9,.88-5,1.07-10.21,1.76-15.29.38-2.73,1.16-5.4,1.75-8.1l10.73,0-6.42,31.45,1.29,1.09c1.15-1,3-1.76,3.34-3a135.69,135.69,0,0,0,4.31-18.54c.56-4.16-.42-8.52-.71-12.78l8,0c-.52,5.29-.86,10.6-1.64,15.85-.64,4.36-2,8.6-2.62,13-.28,1.95-1.73,5.12,2.48,5.23v1.82a25.79,25.79,0,0,1-4.63.85C96.94,475,84.76,475,72.57,475Z"/><path class="cls-11" d="M170.11,430.31c-4.61,10.85-4.18,22.51-5.38,33.91l-9,1.67-.83.19-7.2,0c-.3-1.57-1.08-3.22-.83-4.7,1.64-9.82,3.5-19.6,5.28-29.39a56.87,56.87,0,0,1,7.82-1.69C163.35,430,166.74,430.27,170.11,430.31Z"/><path class="cls-12" d="M34.16,325.45l-2.73,14.32-6.17,1.65c-1.83-4.54-3.9-9-5.45-13.64-3.09-9.21-1.87-18.66-1-28,.15-1.6,1.3-3.11,2-4.66,4.06.44,5.82,2.78,6.2,6.77a11.64,11.64,0,0,0,2,5.55A26.57,26.57,0,0,1,34.16,325.45Z"/><path class="cls-13" d="M196.18,468.68c1.62-1,4.19-1.64,4.7-3,3.14-8.72,3.68-17.85,3.13-27-.07-1.35-1.08-2.64-1.65-4l12.27,2.6,5.54,1.18c-.15,1.47-.26,2.93-.45,4.39q-2,15.12-4,30.24l-19.57-3.63A2.7,2.7,0,0,1,196.18,468.68Z"/><path class="cls-14" d="M359.75,441.79c-.29,9.83-.66,19.65-.78,29.48,0,1.53,1.11,3.07,1.71,4.61l-7.16,2.71-1.8.84-2.58,1c-1.22-1.09-3.42-2.1-3.52-3.29-.86-9.93-1.33-19.89-1.93-29.84Z"/><path class="cls-15" d="M285.51,450.79a14.72,14.72,0,0,0,1.93.91c3.76,1.16,4.57,3,2.06,6.07-4.84,5.92-7.17,12.85-8.56,20.13-.52,2.78,0,5.77.09,8.67l-13.41-2.63,6-28c.42-2,.79-4,1.18-6Z"/><path class="cls-16" d="M250.6,444.6,264,447.23a66.19,66.19,0,0,1-.62,6.62c-1.82,9.43-3.75,18.83-5.65,28.25-3.06-.29-6.15-.43-9.18-.92a18.94,18.94,0,0,1-4.22-1.75c.89-1.27,2.29-2.43,2.57-3.83,1.42-7,2.73-13.94,3.69-21C251.08,451.35,250.64,448,250.6,444.6Z"/><path class="cls-17" d="M229.16,440.91l10.71,1.86c-.93,9.54-1.76,19.08-2.86,28.6-.43,3.71-2.42,5.42-6.51,4-1.42-.49-3.29.33-4.95.55l-8-2.73c.35-.26.73-.78,1-.74,5.53.72,7.95-1.59,7.17-7.18-.06-.39.31-.83.37-1.26Q227.64,452.47,229.16,440.91Z"/><path class="cls-18" d="M225.55,475.93c1.66-.22,3.53-1,4.95-.55,4.09,1.41,6.08-.3,6.51-4,1.1-9.52,1.93-19.06,2.86-28.6l10.73,1.83c0,3.35.48,6.75,0,10-1,7-2.27,14-3.69,21-.28,1.4-1.68,2.56-2.57,3.83l-3.57-.11-1.81-.78Z"/><path class="cls-4" d="M60.05,437.37c-.73,3.25-1,6.72-2.29,9.7a32.67,32.67,0,0,0-2.93,17.69c.34,2.58,2.24,5,3.43,7.43l-12.52-3.51q2.88-16.26,5.75-32.53c-5.8,10.09-6,21.44-7.54,32.47L42.14,467c.79-6.09,1.59-12.17,2.36-18.26.72-5.56,1.41-11.13,2.12-16.69Z"/><path class="cls-15" d="M295.35,487.52c2.58-.3,5.15-.77,7.73-.86,4.15-.15,8.31,0,12.47-.05,5.8-.05,7.52-1.71,6.55-7.19-1.36-7.68-2.75-15.39-7.59-22-.81-1.11-.28-3.22-.36-4.87,3.43-.69,6.84-1.53,10.31-2a33.15,33.15,0,0,1,5.79.2l-4.77,1.84c.6,2.56,1.16,5,1.75,7.4,2.06,8.45,4,16.91,3,25.72-6.35,3.27-13,2.95-19.83,2C305.47,487.11,300.38,487.56,295.35,487.52Z"/><path class="cls-19" d="M152.19,432c-1.78,9.79-3.64,19.57-5.28,29.39-.25,1.48.53,3.13.83,4.7l0,1.69-7.08,1.88-5.46-.25c1.87-11.1,3.62-21.57,5.38-32.05l.09-1.66,0,0,1.69-1.86Z"/><path class="cls-20" d="M257.77,482.1c1.9-9.42,3.83-18.82,5.65-28.25a66.19,66.19,0,0,0,.62-6.62l10.73,2.65c-.39,2-.76,4-1.18,6l-6,28Z"/><path class="cls-16" d="M343.69,447.28c.6,10,1.07,19.91,1.93,29.84.1,1.19,2.3,2.2,3.52,3.29l-11.73,4.4c-.47-4.53-.83-9.06-1.42-13.57-.94-7.12-2-14.21-3.05-21.32Z"/><path class="cls-5" d="M16.93,451.78c1-.66,2.67-1.15,2.89-2C22,440.9,24,432,26.05,423.05l8.89,4.63c-1.93,8.91-3.76,17.85-5.87,26.72-.45,1.88-2,3.5-3,5.24Z"/><path class="cls-21" d="M229.16,440.91q-1.53,11.55-3.07,23.11c-.06.43-.43.87-.37,1.26.78,5.59-1.64,7.9-7.17,7.18-.31,0-.69.48-1,.74l-1.8-.14q2-15.12,4-30.24c.19-1.46.3-2.92.45-4.39Z"/><path class="cls-22" d="M140.55,437.33c-1.76,10.48-3.51,20.95-5.38,32.05l5.46.25-7.18,2.51-6.28.11q2.22-17.44,4.46-34.88Z"/><path class="cls-23" d="M26.08,459.64c1-1.74,2.54-3.36,3-5.24,2.11-8.87,3.94-17.81,5.87-26.72l8,2.64a3.64,3.64,0,0,1,0,.74c-1.77,6.48-3.33,13-5.37,19.43-1.37,4.29.85,9.84-4.38,12.79Z"/><path class="cls-24" d="M33.22,463.28c5.23-2.95,3-8.5,4.38-12.79,2-6.4,3.6-12.95,5.37-19.43l2.78.92c.29,0,.58,0,.87,0-.71,5.56-1.4,11.13-2.12,16.69-.77,6.09-1.57,12.17-2.36,18.26Z"/><path class="cls-20" d="M332.94,449.92c1,7.11,2.11,14.2,3.05,21.32.59,4.51.95,9,1.42,13.57l-7.17.94c1-8.81-.95-17.27-3-25.72-.59-2.41-1.15-4.84-1.75-7.4l4.77-1.84Z"/><path class="cls-25" d="M44,468.62c1.58-11,1.74-22.38,7.54-32.47q-2.88,16.26-5.75,32.53Z"/><path class="cls-24" d="M425.91,438.13q.91-16,1.82-32c.8,1,2.35,2,2.28,2.88-.61,8.31-1.43,16.61-2.37,24.9C427.47,435.34,426.51,436.71,425.91,438.13Z"/><path class="cls-26" d="M429.57,387.22c.59-1.68,1.55-3.32,1.7-5,.28-3.08.09-6.2.09-9.3.58.7,1.74,1.47,1.66,2.1-.9,7.6-2,15.18-3.08,22.75-.06.43-.83.76-1.27,1.13Z"/><path class="cls-27" d="M196.18,468.68a2.7,2.7,0,0,0,0,.75c-5.87-.59-11.74-1.15-17.59-1.84-.51-.06-.92-1-1.37-1.49,5.68-1.66,11.12,1.26,16.74,1C194.65,467,195.43,468.11,196.18,468.68Z"/><path class="cls-19" d="M155.77,465.89l9-1.67c2.75,0,5.52-.16,8.24.09,1.18.11,2.27,1.07,3.41,1.64Z"/><path class="cls-15" d="M127.17,472.25l6.28-.11c-1.53.65-3,1.77-4.61,1.85-5,.25-10.06.12-15.09.13,0-.61,0-1.21,0-1.82l5.37,0Z"/><path class="cls-4" d="M58.36,472.28c2.83,0,5.68-.15,8.49.1,1.05.09,2,1.1,3,1.69-2.74,0-5.51.16-8.23-.1C60.52,473.87,59.46,472.87,58.36,472.28Z"/><path class="cls-26" d="M427.79,406l-3.61-.05,4.47-6.19Q428.22,402.89,427.79,406Z"/><path class="cls-27" d="M147.71,467.75l0-1.69,7.2,0Z"/><path class="cls-26" d="M376.77,306.63c-2.59-.33-5.79,1-7.2-2.6Z"/><path class="cls-26" d="M430.4,364.83c-2.85-.63-3.36-2.15-1.71-4.49Z"/><path class="cls-26" d="M385.79,310.14l-6.34-2.7Z"/><path class="cls-26" d="M167.44,265.49l-6.35,2.57Z"/><path class="cls-26" d="M45.73,265.39l-5.34,1.86Z"/><path class="cls-26" d="M53,261.05c.16,2.71-1.69,2.69-3.57,2.65Z"/><path class="cls-26" d="M403.66,318.23l-3.7-3.4Z"/><path class="cls-26" d="M427.7,355q-.87-2.24-1.73-4.48Q426.83,352.78,427.7,355Z"/><path class="cls-26" d="M418.82,335.29l-1.77-.91c-.3-.89-.6-1.79-.91-2.68Z"/><path class="cls-26" d="M106.5,263.7,103.84,261Z"/><path class="cls-26" d="M367.82,304l-2.68-1Z"/><path class="cls-26" d="M67.21,257.35l-2.68,1Z"/><path class="cls-26" d="M115.52,271.71l-2.7-2.67Z"/><path class="cls-26" d="M112.82,269l-2.68-2.68Z"/><path class="cls-26" d="M424.2,346.93c-.29-.9-.59-1.81-.89-2.71C423.61,345.12,423.91,346,424.2,346.93Z"/><path class="cls-26" d="M421.49,339.77,419.75,337Z"/><path class="cls-26" d="M407.15,321l-1.79-2.66C406,319.22,406.55,320.1,407.15,321Z"/><path class="cls-26" d="M97.6,258.3l-1.76-.94Z"/><path class="cls-26" d="M62.78,258.35,60.9,260Z"/><path class="cls-26" d="M100.35,260l-1.87-1.67Z"/><path class="cls-26" d="M59.16,260l-1.81.91Z"/><path class="cls-26" d="M110.13,266.35l-1.83-1.7Z"/><path class="cls-26" d="M20.64,280.62c-.29.62-.59,1.23-.88,1.84C20.05,281.85,20.35,281.24,20.64,280.62Z"/><path class="cls-26" d="M423.22,342.48l-1.7-1.84Z"/><path class="cls-26" d="M140.62,271.78l-1.88,1.67Z"/><path class="cls-26" d="M392.93,312.85,391,311.18Z"/><path class="cls-26" d="M120,273.45l-1.88-1.67Z"/><path class="cls-26" d="M30.57,271.79l-1.88,1.66Z"/><path class="cls-26" d="M147.73,270.77l-1.78,1Z"/><path class="cls-27" d="M.33,426.52l1.5,2Z"/><path class="cls-26" d="M153.14,269.08l-1.88,1.68Z"/><path class="cls-26" d="M39.53,267.33,37.64,269Z"/><path class="cls-16" d="M239,478.54l1.81.78Z"/><path class="cls-16" d="M351.72,479.43l1.8-.84Z"/><path class="cls-5" d="M14.51,449l1.61,2Z"/><path class="cls-27" d="M127.17,472.25l-8.06,0a58.47,58.47,0,0,1,.23-7.38c1.31-8.6,2.8-17.16,4.23-25.74l.9-.9,4.43-.94,2.73.06Q129.39,454.82,127.17,472.25Z"/><path class="cls-28" d="M123.57,439.15c-1.43,8.58-2.92,17.14-4.23,25.74a58.47,58.47,0,0,0-.23,7.38l-5.37,0c-4.21-.11-2.76-3.28-2.48-5.23.63-4.36,2-8.6,2.62-13,.78-5.25,1.12-10.56,1.64-15.85h1.79Z"/><path class="cls-29" d="M107.48,438.28c.29,4.26,1.27,8.62.71,12.78a135.69,135.69,0,0,1-4.31,18.54c-.34,1.21-2.19,2-3.34,3l-1.29-1.09L105.67,440Z"/><path class="cls-2" d="M378.56,436.45,374,436.4c.66-5.12,5.24-3.39,8-4.18,4.36-1.23,9.05-1.35,13.59-1.94-1,3.54-3.87,3.41-6.69,3.5C385.29,433.9,381.28,432.69,378.56,436.45Z"/><path class="cls-24" d="M193.39,432.84c-3.82-.57-7.63-1.25-11.47-1.67-1.56-.17-3.19.4-4.78.31a8.14,8.14,0,0,1-2.64-1.19c5.75.06,11.49,0,17.23.27C192.31,430.59,192.84,432.05,193.39,432.84Z"/><path class="cls-4" d="M131.63,437.37l-2.73-.06c1.44-.57,2.84-1.49,4.32-1.65a65.6,65.6,0,0,1,7.42,0l-.09,1.67Z"/><path class="cls-4" d="M123.57,439.15l-6.26-.89h7.16Z"/><path class="cls-4" d="M45.75,432,43,431.06a3.64,3.64,0,0,0,0-.74Z"/><path class="cls-4" d="M142.35,433.78l-1.69,1.86Z"/><path class="cls-30" d="M349.62,240.69a221.14,221.14,0,0,0-19.5-37.17c-5.64-8.46-11.7-16.64-17.57-24.94l-5.4-5.24c-1.56-.52-1.46.62-1.31,1.46.68,4,1.9,7.95,2.1,12,.52,10.51,1.13,21.07.71,31.57-.37,9.29-2.16,18.52-3.2,27.8-1.32,11.84-6.35,22.16-12.9,31.84-3.35,4.94-7,9.67-10.54,14.48-.17.23-.58.28-1.34.62,1.54-4.23,2.82-8.16,4.38-12a180.06,180.06,0,0,0,9.69-33.6c1.77-9,3.28-17.93,3.37-27.1.05-5.36.82-10.75.56-16.08a187.27,187.27,0,0,0-3.61-30.09,141.54,141.54,0,0,0-10.14-30c-2-4.21-4.72-8.06-7.11-12.07-.95-1.58-1.88-3.17-3.14-5.3a23.43,23.43,0,0,1,3.31-.52,48.36,48.36,0,0,0,30.65-10.48c8.41-6.48,15.32-14.15,20-23.79,5.45-11.18.84-22.37-8.63-28a24.51,24.51,0,0,0-29.78,4,121.84,121.84,0,0,0-10,12c-2.75,3.65-5.75,7.15-11.38,4.77-2.9-1.22-6.35-1.18-9.22-2.45-8.16-3.62-11.92-10.59-12.81-19.07-.39-3.72.2-7.58.72-11.32.3-2.21,1.92-3.59,4.2-4.3,4.24-1.34,8.67-2.43,12.55-4.51A93.5,93.5,0,0,0,279.89,33a12.13,12.13,0,0,0,4.26-11.69c-1.7-8.55-9.37-13.18-16.43-11.62A65.34,65.34,0,0,0,237,25.77,64.49,64.49,0,0,0,218.68,54c-1.11,3.51-1.05,7.52-.89,11.28A14,14,0,0,1,213,76.82a146.88,146.88,0,0,0-18.79,21.36c-1.37,1.89-3.38,3.3-5,5.06q-10.37,11.63-20.64,23.32c-12,13.78-21.4,29.32-29.4,45.67a182.33,182.33,0,0,0-15.37,46.85,253.27,253.27,0,0,0-3.59,28.43c-.34,4.86-.35,9.05,2.52,13,.13.19-8.61-12.33-9.58-20.24-1.54-12.67-1.39-25.35,1.58-37.87a190.46,190.46,0,0,1,16.89-45.85c6.14-11.51,12.93-22.65,21.65-32.44,4.39-4.94,9.07-9.63,13.67-14.38,2.78-2.87,5.66-5.64,8.49-8.46l.41-.05-.38.15a75.2,75.2,0,0,0-8.46,2.73c-10,4.49-18.94,10.69-27.75,17.18a138.23,138.23,0,0,0-15.83,13.94c-6.12,6.12-10.77,13.34-15.27,20.63-4.21,6.82-8.37,13.7-12,20.81-1.88,3.65-4.3,6-8.16,6.94a19.05,19.05,0,0,1-3.15.16c0-2-.36-3.85.06-5.48,1.49-5.72,2.81-11.54,5-17a125.43,125.43,0,0,1,8.88-17.87,69.93,69.93,0,0,1,9.06-11.18c8.49-9.15,18.47-16.52,28.77-23.49,8.37-5.66,16.55-11.6,25-17.17,5.65-3.73,11.53-7.12,17.39-10.52,9.42-5.44,18.9-10.76,28.51-16.23,1.43-8.24,3.66-16.38,7.68-23.91A80.51,80.51,0,0,1,233.9,17.65,73.85,73.85,0,0,1,265.17,1.73,67,67,0,0,1,310.9,7.45c10,5.14,17.61,12.74,23.59,22.17a58.09,58.09,0,0,1,8.63,24.69,70,70,0,0,1-5.29,36.49,75,75,0,0,1-19.22,26.66c-4.37,3.87-9.51,6.9-14.45,10.11a88.84,88.84,0,0,1-8.06,4.13c1.4,1.65,2.7,3.25,4.08,4.79,10.66,11.87,21.59,23.52,31.91,35.68,7.16,8.43,13.63,17.58,17.88,27.85a88.09,88.09,0,0,1,5.24,20c1.08,6.89,1.06,14,1.29,20.95.06,2-.69,4.08-1.24,7.05l-4-2.5ZM288,59.38c.24-4.6-1.25-7.31-3.35-9.45-3.74-3.78-8.49-4.91-13.71-4.07-8.58,1.39-15.12,5.54-18.85,13.69-2.16,4.72-2.14,9.43,1.26,13.2,3.82,4.25,8.94,6.45,14.9,5.26A28.77,28.77,0,0,0,281,71.86,19.19,19.19,0,0,0,288,59.38Z"/><path class="cls-31" d="M200,314.25c0,3.56-3.19,4.4-5.35,5.72-6.85,4.21-14.61,5.9-22.43,7.38a107,107,0,0,1-26.43,1.2c-8.87-.54-17.81-1.69-25.32-7.28-5.77-4.3-4.68-9.49-.58-13a36.85,36.85,0,0,1,18-8.25c5.49-1,10.87-2.78,16.51-2.16a19.88,19.88,0,0,1,7.58,2.07,106.07,106.07,0,0,0,34.7,12.74,29.29,29.29,0,0,1,3.22.92A1.47,1.47,0,0,0,200,314.25Z"/><path class="cls-31" d="M201.51,315c1.53-.35,3.07-1.11,4.51-1,6.12.63,12.2,1,18.33-.07,5.46-1,11-1.49,16.44-2.59a85.59,85.59,0,0,0,22-7.95,7.81,7.81,0,0,1,3.9-1,7.36,7.36,0,0,1,2.74.65c4.32,1.86,8.54,3.69,12.33,6.61,6.11,4.73,4.5,10.86-.31,14.05-5.8,3.84-12.23,5.49-18.85,6.16a134.62,134.62,0,0,1-21.8.66c-11.37-.71-22.62-2.64-32.76-8.37C205.42,320.72,202.39,319.3,201.51,315Z"/><path class="cls-32" d="M302.68,95.21c-5.3.05-7.35-3.46-7.61-7.47-.27-4.22,3.7-8.1,7.79-8s7.88,3.8,8,7.69C311,91.9,307.47,95.23,302.68,95.21Z"/><path class="cls-33" d="M264.35,27.4c-.15,4.15-3.78,7.83-7.66,7.74s-7.52-4.23-7.3-8.11,4.08-7.55,7.68-7.39C260.89,19.81,264.48,23.63,264.35,27.4Z"/><path class="cls-34" d="M307.15,173.34l5.4,5.24-1,.46c3.47,7.93,6.76,15.65,10.23,23.29,1.54,3.37,3.47,6.55,5.19,9.83a8.19,8.19,0,0,1,.44,1.58l-.06,1.29a21.52,21.52,0,0,1-2.55-3.21c-2-3.75-4.36-7.42-5.59-11.43-2.2-7.15-6.93-13.08-9.14-20.09C309.31,177.82,307,176.11,307.15,173.34Z"/><path class="cls-34" d="M338.31,231.81c2.86,3.11,5.74,6.2,8.58,9.32.05.06-.18.37-.54,1.07a51.46,51.46,0,0,1-4.36-4.39c-1.44-1.83-2.59-3.89-3.86-5.84Z"/><path class="cls-35" d="M327.37,215l.06-1.29,7,12.24-.72.42A46.93,46.93,0,0,1,327.37,215Z"/><path class="cls-36" d="M111.35,167l7.22-5.83c-1,2.65-4.19,4.21-6.25,6.79Z"/><path class="cls-34" d="M338.13,232c-2.1-1.06-3.7-2.4-3-5.48a7.32,7.32,0,0,1,3.17,5.32Z"/><path class="cls-34" d="M349.62,240.69l1.64,4.8L347.53,242Z"/><path class="cls-36" d="M123,155.68l-2.45,3.48-.75-.61c.25-1.69,1.46-2.52,3.08-3Z"/><path class="cls-36" d="M106.62,171.08l2.25-2.38.7.59-2,2.6Z"/><path class="cls-36" d="M131.2,145l2.11-2.89.76.49-1.95,2.95Z"/><path class="cls-36" d="M99.61,177.51l-2.14,1.19-.36-.56,2.08-1.31Z"/><path class="cls-36" d="M126.53,149.84l1.38-.16.15.64-1.43.37Z"/><path class="cls-36" d="M139.23,134.43l1.47-.74.26.42-1.42,1Z"/><path class="cls-36" d="M136.31,140.32l-1.25.5-.23-.41,1.11-.73Z"/><path class="cls-36" d="M130.94,146.84l-.77,1.09-.44-.25.57-1.19Z"/><path class="cls-37" d="M200,314.25a1.47,1.47,0,0,1-.12-.65l1-.31Z"/><path class="cls-36" d="M104,173.83l.62-1.19.51.42-1.07.82Z"/><path class="cls-36" d="M102,175.43l.37.43-.66.42c-.07-.18-.24-.4-.19-.55S101.84,175.53,102,175.43Z"/><path class="cls-36" d="M143.18,130.76l.49-1.31.5.19-.52,1.3Z"/><path class="cls-36" d="M125.72,152.46l-.59.57-.53-.42.5-.76Z"/><path class="cls-30" d="M280.15,294.36l-1.07.22-.12-.41.93-.44Z"/><path class="cls-36" d="M175.51,101.39l.38-.15-.41.05Z"/><path class="cls-36" d="M104,173.88l-.64.58.58-.63Z"/><path class="cls-36" d="M122.84,155.56l.47-.35-.35.47Z"/><path class="cls-38" d="M288,59.38a19.19,19.19,0,0,1-7,12.48A28.77,28.77,0,0,1,268.22,78c-6,1.19-11.08-1-14.9-5.26-3.4-3.77-3.42-8.48-1.26-13.2,3.73-8.15,10.27-12.3,18.85-13.69,5.22-.84,10,.29,13.71,4.07C286.72,52.07,288.21,54.78,288,59.38ZM276.33,70c-7.46-3.43-9.53-10.32-12-17.43-1.77,1.36-3.36,2.22-4.47,3.5-6,6.92-4.36,14.38,3,16.66C267.21,74.05,271.89,73.34,276.33,70Z"/><path class="cls-39" d="M276.33,70c-4.44,3.39-9.12,4.1-13.52,2.73-7.35-2.28-9-9.74-3-16.66,1.11-1.28,2.7-2.14,4.47-3.5C266.8,59.63,268.87,66.52,276.33,70Z"/><path d="M123,260.47s9,20.55,18,28.77l11.54,8.5"/><line class="cls-40" x1="122.78" y1="260.53" x2="123.28" y2="262.02"/><path d="M267,302.47a124.27,124.27,0,0,0,13.12-8.11l1.42-1.64"/><path class="cls-40" d="M207.17,354.48a109.67,109.67,0,0,1-11.24-.59c-56-5.78-110.71-52.65-107.25-144.35l11.2-7,4.1,27.31L124.06,207l3.78,9.61,10.46,9L144.43,243l16.47-25.1,5.65,23,27.21-12.28,6.92,12.43,27.07-19.48,14.52,25.85,32.37-31.16L294,240.64l5.11-26.86,8.08,17.32,13.28-36.94c-.08,7.71-.5,15.47-1.27,23.18-4.29,42.89-17.38,78.23-37.84,102.22C261.88,342.4,236.22,354.48,207.17,354.48Z"/><path d="M98,206.7l2.73,18.23,1.6,10.65,7.11-8.09,13.81-15.75,2.06,5.22.45,1.15.93.8,9.5,8.2,4.23,11.94,3.36,9.5,5.53-8.42L159.84,224l3.57,14.54,1.43,5.83,5.48-2.47,22.38-10.09,4.43,8,2.73,4.9,4.56-3.28,22.52-16.21,11.57,20.6,3.16,5.63,4.66-4.48,28.06-27,14.28,18,6.79,8.53,2-10.71,2.64-13.89,2.24,4.8,5.13,11,4.11-11.42,5.69-15.85c-.16,2.24-.36,4.48-.58,6.71-4.24,42.38-17.12,77.25-37.25,100.84-19,22.27-44,34.05-72.31,34.05a107.46,107.46,0,0,1-11-.58,111.24,111.24,0,0,1-75.84-41C100,285.09,89.88,250.75,91.13,211L98,206.7m224.77-26.23-15.84,44.07-8.79-18.83-5.54,29.11-17.69-22.26-32,30.82-14.31-25.47L201.5,237.38l-6.67-12-26.56,12L162,211.7l-16.85,25.68-4.67-13.19-10.5-9.06-5.06-12.84-19.22,21.9-3.87-25.76-15.56,9.69c-3.91,89.8,48,141.92,109.44,148.26a112.19,112.19,0,0,0,11.5.6c59.28,0,105.5-49,114.54-139.39a258.16,258.16,0,0,0,1-37.12Z"/></g></g></svg>