<?xml version="1.0" encoding="UTF-8" standalone="no"?>
<svg
   xmlns:dc="http://purl.org/dc/elements/1.1/"
   xmlns:cc="http://creativecommons.org/ns#"
   xmlns:rdf="http://www.w3.org/1999/02/22-rdf-syntax-ns#"
   xmlns:svg="http://www.w3.org/2000/svg"
   xmlns="http://www.w3.org/2000/svg"
   xmlns:sodipodi="http://sodipodi.sourceforge.net/DTD/sodipodi-0.dtd"
   xmlns:inkscape="http://www.inkscape.org/namespaces/inkscape"
   version="1.1"
   width="32"
   height="32"
   viewBox="0 0 32 32"
   id="svg849"
   sodipodi:docname="moon-outline-light.svg"
   inkscape:version="1.0.2 (e86c870879, 2021-01-15, custom)">
  <metadata
     id="metadata855">
    <rdf:RDF>
      <cc:Work
         rdf:about="">
        <dc:format>image/svg+xml</dc:format>
        <dc:type
           rdf:resource="http://purl.org/dc/dcmitype/StillImage" />
        <dc:title>moon-fill</dc:title>
      </cc:Work>
    </rdf:RDF>
  </metadata>
  <defs
     id="defs853">
    <clipPath
       clipPathUnits="userSpaceOnUse"
       id="clipPath880">
      <path
         d="m 76.842485,38.171814 c -8.188,0 -14.82,-6.637 -14.82,-14.82 0,-2.695 0.773,-5.187999 2.031,-7.362999 -6.824001,1.968 -11.844001,8.186999 -11.844001,15.643999 0,9.031 7.320001,16.355 16.352001,16.355 7.457,0 13.679999,-5.023 15.647999,-11.844 -2.18,1.254 -4.672,2.028 -7.366999,2.028 z"
         id="path882"
         style="fill:none;fill-opacity:1" />
    </clipPath>
  </defs>
  <sodipodi:namedview
     pagecolor="#ffffff"
     bordercolor="#666666"
     borderopacity="1"
     objecttolerance="10"
     gridtolerance="10"
     guidetolerance="10"
     inkscape:pageopacity="0"
     inkscape:pageshadow="2"
     inkscape:window-width="1920"
     inkscape:window-height="986"
     id="namedview851"
     showgrid="false"
     inkscape:zoom="11.96875"
     inkscape:cx="-1.5519318"
     inkscape:cy="7.9793371"
     inkscape:window-x="-11"
     inkscape:window-y="-11"
     inkscape:window-maximized="1"
     inkscape:current-layer="svg849"
     inkscape:document-rotation="0"
     inkscape:snap-bbox="true" />
  <title
     id="title845">moon-fill</title>
  <path
     d="m 76.842485,38.171814 c -8.188,0 -14.82,-6.637 -14.82,-14.82 0,-2.695 0.773,-5.187999 2.031,-7.362999 -6.824001,1.968 -11.844001,8.186999 -11.844001,15.643999 0,9.031 7.320001,16.355 16.352001,16.355 7.457,0 13.679999,-5.023 15.647999,-11.844 -2.18,1.254 -4.672,2.028 -7.366999,2.028 z"
     id="path868"
     style="fill:none;fill-opacity:1" />
  <path
     d="m 76.842485,38.171814 c -8.188,0 -14.82,-6.637 -14.82,-14.82 0,-2.695 0.773,-5.187999 2.031,-7.362999 -6.824001,1.968 -11.844001,8.186999 -11.844001,15.643999 0,9.031 7.320001,16.355 16.352001,16.355 7.457,0 13.679999,-5.023 15.647999,-11.844 -2.18,1.254 -4.672,2.028 -7.366999,2.028 z"
     id="path876"
     style="fill:none;fill-opacity:1;stroke:#000000;stroke-opacity:1;stroke-width:3.77952756;stroke-miterlimit:4;stroke-dasharray:none"
     clip-path="url(#clipPath880)"
     transform="translate(-52.149821,-15.906699)" />
  <path
     d="m 76.842485,38.171814 c -8.188,0 -14.82,-6.637 -14.82,-14.82 0,-2.695 0.773,-5.187999 2.031,-7.362999 -6.824001,1.968 -11.844001,8.186999 -11.844001,15.643999 0,9.031 7.320001,16.355 16.352001,16.355 7.457,0 13.679999,-5.023 15.647999,-11.844 -2.18,1.254 -4.672,2.028 -7.366999,2.028 z"
     id="path874"
     style="fill:none;fill-opacity:1" />
</svg>
